<?xml version="1.0" encoding="UTF-8"?><svg version="1.1" viewBox="0 0 64 64" xmlns="http://www.w3.org/2000/svg"><path fill="#FF5D54" d="M19 12h9c5 0 6 4 6 7v17l1.9 1.27 -.0001-.0001c.6882.4546 1.1016 1.225 1.1 2.0499v.21l0-.0001c-.0028 1.363-1.107 2.4672-2.47 2.47l0-.0001c-.1751.0003-.3497-.0198-.52-.06l-.0001-.0001c-.7349-.1535-1.3582-.6367-1.69-1.31l-.3201-.63 -.32.63 0-.0001c-.3319.6733-.9552 1.1565-1.69 1.31l0-.0001c-.1704.0402-.345.0603-.52.06l0-.0001c-1.3575.0066-2.4634-1.0885-2.4701-2.446 -.0001-.0081-.0001-.0161-.0001-.0241v-.21l-.0001-.0001c-.0017-.825.4117-1.5954 1.1-2.05l1.8999-1.27v-14.58c0-1.48-.52-2.42-2-2.42h-7v-4h-1.56l0-.0001c-.7942.0012-1.4391-.6416-1.4403-1.4358 -.0006-.3515.1276-.6909.3602-.9543 .15-.17.35-.4.56-.67Z"/><g fill="#E7544C"><path d="M20.24 37.25c1.55-2.07 4.24-5.25 6.09-5.25l-.0001 0c1.5049-.0892 2.9291.687 3.67 1.9999v2l-1.9 1.27 0-.0001c-.6883.4546-1.1017 1.225-1.1001 2.05v.21l0-.0001c-.0067 1.3574 1.0884 2.4633 2.4459 2.47 .008 0 .016 0 .024 0l0 0c.175.0003.3496-.0198.52-.0601l.01.06v7.05l0 0c.0128 1.1943-.5213 2.3289-1.4501 3.0799l-4.06 3.16 0-.0001c-.5755.4551-1.2864.705-2.02.71l-.0001-.0001c-1.4439-.0369-2.716-.9592-3.2-2.3201l-.0001-.0001c-.1787-.4696-.2702-.9677-.27-1.4701v-11.16l-.0001-.0001c-.0094-1.3676.4258-2.7012 1.24-3.8Z"/><path d="M45 41.05v11.16l0 .001c0 .5023-.0917 1.0004-.2704 1.4699l0-.0001c-.4843 1.3603-1.7562 2.2821-3.1997 2.319l0 0c-.7337-.005-1.4446-.2549-2.02-.71l-4.06-3.16 0 0c-.9288-.7511-1.4629-1.8857-1.4501-3.08v-7.05l.01-.06 -.0001-.0001c.1703.0402.3449.0603.52.06l0-.0001c1.363-.0028 2.4672-1.107 2.47-2.47v-.21l0-.0001c.0016-.825-.4118-1.5954-1.1001-2.05l-1.9-1.27v-2l0-.0001c.7408-1.313 2.165-2.0892 3.67-2 1.85 0 4.54 3.18 6.09 5.25l0 0c.8141 1.0988 1.2493 2.4324 1.2399 3.7999Z"/></g><path fill="#F2C4B2" d="M56 41l-1.09-4.9 0 0c-.5631-2.5222-2.4699-4.529-4.96-5.2201l-12.9501-3.8801v-8c3-2 4-4 4-6v-4 0c0-4.4183-3.5818-8-8-8h-5l-.0001-.0001c-2.3657-.0212-4.589 1.1279-5.94 3.07l0-.0001c-.629.8537-.9972 1.8714-1.06 2.93l-.0001 0c-.1658 1.8221-.8925 3.548-2.0801 4.9399l.08.0599h9c5 0 6 4 6 7v15l0-.0001c.7408-1.313 2.165-2.0892 3.67-2 1.85 0 4.54 3.18 6.09 5.25l0 0c.8141 1.0988 1.2493 2.4324 1.2399 3.7999v11.16l0 .001c0 .5023-.0917 1.0004-.2704 1.4699l0-.0001c-.4843 1.3603-1.7562 2.2821-3.1997 2.319l0 0c-.7337-.005-1.4446-.2549-2.02-.71l-4.06-3.16 0 0c-.9288-.7511-1.4629-1.8857-1.4501-3.08v-7.05l.01-.06 -.0001-.0001c-.7349-.1535-1.3582-.6367-1.69-1.31l-.32-.63 -.32.63 0-.0001c-.3319.6733-.9552 1.1565-1.69 1.31l.0099.06v7.05l0 0c.0128 1.1943-.5213 2.3289-1.4501 3.0799l-4.06 3.16 0-.0001c-.5755.4551-1.2864.705-2.02.71l-.0001-.0001c-1.4439-.0369-2.716-.9592-3.2-2.3201l-.0001-.0001c-.1787-.4696-.2702-.9677-.27-1.4701v-11.16l-.0001-.0001c-.0094-1.3676.4258-2.7012 1.24-3.8 1.5499-2.07 4.2399-5.25 6.0899-5.25l-.0001 0c1.5049-.0892 2.9291.687 3.67 1.9999v-12.58c0-1.48-.52-2.42-2-2.42h-7v1l0 0c.0032 1.1032.8968 1.9967 2 1.9999h4v5l-12.9501 3.88 -.0001 0c-2.4902.691-4.397 2.6978-4.96 5.22l-1.09 4.9 -4 22h10l2-10 .69 1.71 3.31 8.29h24l3.31-8.29 .69-1.71 2 10h10Z"/><g fill="#F2B59D"><path d="M28.55 52.13l-4.06 3.16 0-.0001c-.5755.4551-1.2864.705-2.02.71l-.0001-.0001c-1.4439-.0369-2.716-.9592-3.2-2.3201l-.0001-.0001c-.1787-.4696-.2702-.9677-.27-1.47v3l-.0001.001c-.0001.5023.0916 1.0004.2703 1.4699l-.0001-.0001c.4842 1.3603 1.7561 2.2821 3.1996 2.319l0-.0001c.7336-.005 1.4445-.2549 2.02-.71l4.06-3.16 0-.0001c.9287-.7511 1.4628-1.8857 1.45-3.08v-3l0 0c.0128 1.1943-.5213 2.3289-1.4501 3.0799Z"/><path d="M41.53 56l0 0c-.7337-.005-1.4446-.2549-2.02-.71l-4.06-3.16 -.0001-.0001c-.9288-.7511-1.4629-1.8857-1.45-3.08v3l-.0001 0c-.0129 1.1943.5212 2.3289 1.45 3.0799l4.06 3.16 0 0c.5754.4551 1.2863.705 2.02.7099l-.0001 0c1.4438-.0369 2.7159-.9592 3.2-2.32l0-.0001c.1786-.4696.2701-.9677.2699-1.4701v-3l0 .001c0 .5023-.0917 1.0004-.2704 1.4699l-.0001 0c-.4843 1.3603-1.7562 2.2821-3.1997 2.319Z"/></g><g fill="#C74841"><path d="M25.874 49.9l-3.266 2.612 0-.0001c-.9569.7665-2.3541.6122-3.1206-.3446 -.3156-.394-.4876-.8837-.4875-1.3885v1.431l-.0001.001c-.0001.5023.0916 1.0004.2703 1.4699l-.0001-.0001c.4842 1.3603 1.7561 2.2821 3.1996 2.319l0-.0001c.7336-.005 1.4445-.2549 2.02-.71l4.06-3.16 -.0001 0c.9287-.7511 1.4628-1.8857 1.45-3.08v-7.05l-.01-.06 0-.0001c-.1704.0402-.345.0603-.52.06l0-.0001c-1.3575.0066-2.4634-1.0885-2.4701-2.446 -.0001-.0081-.0001-.0161-.0001-.0241v8.028l0-.0007c0 .9111-.4141 1.7729-1.1255 2.3422Z"/><path d="M38.126 49.9l3.266 2.612 -.0001-.0001c.9568.7665 2.354.6122 3.1205-.3446 .3155-.394.4875-.8837.4874-1.3885v1.4309l0 .001c0 .5023-.0917 1.0004-.2704 1.4699l0-.0001c-.4843 1.3603-1.7562 2.2821-3.1997 2.319l0 0c-.7337-.005-1.4446-.2549-2.02-.71l-4.06-3.16 0 0c-.9288-.7511-1.4629-1.8857-1.4501-3.08v-7.05l.01-.06 -.0001-.0001c.1703.0402.3449.0603.52.06l-.0001-.0001c1.3574.0066 2.4633-1.0885 2.47-2.446 0-.0081 0-.0161 0-.0241v8.028l-.0001-.0007c0 .9111.414 1.7729 1.1254 2.3422Z"/></g><g fill="#F2B59D"><path d="M11.757 56.97l0-.0001c-.4451 1.7805-2.0448 3.0297-3.88 3.03H4.5449l-.545 3h10l2-10v-13Z"/><path d="M56.123 60l-.0001-.0001c-1.8353-.0003-3.435-1.2495-3.88-3.0301l-4.243-16.97v13l2 10h10l-.545-3Z"/><path d="M27 22h3v5h-3Z"/><path d="M37 19l-3 2 0 6 3 0 0-8Z"/></g><g stroke-width="2" stroke="#000" fill="none" stroke-linejoin="round"><path d="M48 53l2 10h10l-4-22 -1.089-4.9 -.0001-.0001c-.5606-2.5246-2.4674-4.5345-4.9591-5.227l-12.952-3.873v-8c3-2 4-4 4-6v-4 0c0-4.4183-3.5818-8-8-8h-5l0 0c-2.3662-.0237-4.5902 1.1274-5.937 3.0729l-.0001 0c-.6332.8505-1.0028 1.8683-1.0631 2.927 0 2.348-1.838 4.7-2.637 5.606l-.0001 0c-.2334.2634-.3625.603-.363.955v0l-.0001-.0001c0 .7947.6442 1.4389 1.4389 1.4389h1.561v5l0 0c0 1.1045.8954 1.9999 2 1.9999h4v5l-12.952 3.875 -.0001 0c-2.4911.6922-4.3978 2.7011-4.959 5.225l-1.089 4.8999 -4 22h10l2-10"/><path d="M30 24v-2.581C30 19.941 29.478 19 28 19h-7"/><path d="M30 28l0-2"/><path d="M19 12h9c5 0 6 4 6 7v17l1.9 1.266 0 0c.6874.4586 1.1002 1.2305 1.1 2.057v.2l0 0c.0027 1.3652-1.1018 2.4742-2.4671 2.4769 -.0017 0-.0034 0-.0051 0v0l-.0001 0c-.9366.0003-1.7928-.5291-2.211-1.3671l-.317-.633 -.317.633 0-.0001c-.4183.8379-1.2745 1.3673-2.211 1.367v0l-.0001 0c-1.3653 0-2.472-1.1068-2.4721-2.472 -.0001-.0001-.0001-.0001-.0001-.0001v-.2l-.0001-.0007c-.0001-.8265.4129-1.5983 1.1005-2.0567l1.8994-1.2707v-6"/><path d="M30 34l-.0001-.0001c-.7392-1.3133-2.1628-2.0897-3.667-2 -1.854 0-4.541 3.182-6.095 5.255l0-.0001c-.8114 1.0978-1.2457 2.4288-1.238 3.794v11.164l-.0001 0c-.0836 2.0029 1.4684 3.6961 3.471 3.7869v0l-.0001 0c.7315-.0019 1.4415-.2483 2.017-.7l4.058-3.162 0-.0001c.9329-.7512 1.469-1.8894 1.4539-3.087v-7.051"/><path d="M34 34l-.0001 0c.7391-1.3133 2.1627-2.0897 3.667-2.0001 1.854 0 4.541 3.182 6.095 5.255l-.0001-.0001c.8113 1.0978 1.2456 2.4288 1.238 3.794v11.164l0 0c.0835 2.0029-1.4685 3.6961-3.4711 3.7869v0l-.0001-.0001c-.7316-.0019-1.4416-.2483-2.017-.7001l-4.058-3.162 -.0001-.0001c-.933-.7512-1.4691-1.8894-1.454-3.087v-7.051"/><path d="M16 43l0 10 4 10"/><path d="M48 43l0 10 -4 10"/><path d="M41 40l-4 0 3 5 0 4 -2 2"/><path d="M40 45l3 0"/><path d="M40 49l2 3"/><path d="M23 40l4 0 -3 5 0 4 2 2"/><path d="M24 45l-3 0"/><path d="M24 49l-2 3"/><path d="M6 6s-1 12 11 12l-2-3"/><path d="M18 21s-13 0-13 11l3.122-2"/><path d="M2 30l3 2"/></g></svg>