<?xml version="1.0" encoding="UTF-8"?><svg version="1.1" viewBox="0 0 32 32" xmlns="http://www.w3.org/2000/svg"><g fill="#FD5C3F"><path d="M21 15.826c-.98 0-1.961-.373-2.707-1.119 -.391-.391-.391-1.023 0-1.414s1.023-.391 1.414 0c.713.713 1.873.713 2.586 0 .391-.391 1.023-.391 1.414 0s.391 1.023 0 1.414c-.746.746-1.727 1.119-2.707 1.119Z"/><path d="M16 24c-1.777 0-3.449-.693-4.707-1.951 -.391-.391-.391-1.023 0-1.414s1.023-.391 1.414 0c1.816 1.816 4.77 1.816 6.586 0 .391-.391 1.023-.391 1.414 0s.391 1.023 0 1.414C19.449 23.307 17.777 24 16 24Z"/><path d="M16 32C7.178 32 0 24.822 0 16 0 7.178 7.178 0 16 0c8.822 0 16 7.178 16 16s-7.178 16-16 16Zm0-30C8.28 2 2 8.28 2 16c0 7.72 6.28 14 14 14s14-6.28 14-14 -6.28-14-14-14Z"/><path d="M25 12c-.124 0-.25-.022-.371-.071l-5-2c-.513-.205-.763-.787-.558-1.3 .205-.515.791-.764 1.3-.558l5 2c.513.205.763.787.558 1.3 -.157.392-.533.629-.929.629Z"/><path d="M11 15.826c-.98 0-1.961-.373-2.707-1.119 -.391-.391-.391-1.023 0-1.414s1.023-.391 1.414 0c.713.713 1.873.713 2.586 0 .391-.391 1.023-.391 1.414 0s.391 1.023 0 1.414c-.746.746-1.727 1.119-2.707 1.119Z"/><path d="M7 12c-.396 0-.772-.237-.929-.629 -.205-.513.045-1.095.558-1.3l5-2c.509-.206 1.095.043 1.3.558 .205.513-.045 1.095-.558 1.3l-5 2C7.25 11.978 7.124 12 7 12Z"/></g></svg>