<?xml version="1.0" encoding="UTF-8"?><svg version="1.1" viewBox="0 0 24 24" xmlns="http://www.w3.org/2000/svg"><path fill="none" stroke="#000" stroke-linecap="round" stroke-linejoin="round" stroke-width="2" d="M15.05 5l0 0c1.9979.3898 3.5601 1.952 3.9499 3.95m-3.95-7.9501l0 0c4.1795.4643 7.4804 3.761 7.95 7.94m-1 7.98v3l0 0c.0044 1.1045-.8874 2.0036-1.9919 2.008 -.0629.0002-.1256-.0025-.1882-.0082l-.0001-.0001c-3.0772-.3344-6.033-1.3859-8.63-3.07l0 0c-2.4162-1.5354-4.4647-3.5839-6.0001-6l0 0c-1.6901-2.6088-2.7418-5.5791-3.0701-8.67l-.0001-.0001c-.0995-1.1001.7117-2.0725 1.8118-2.1719 .0592-.0054.1186-.0081.1781-.0082h3l-.0001 0c1.0038-.0099 1.8595.7259 2 1.72l0 0c.1266.96.3614 1.9027.7 2.81l0 0c.2747.7308.099 1.5548-.4501 2.11l-1.2701 1.27 -.0001-.0001c1.4235 2.5035 3.4964 4.5764 5.9999 6l1.27-1.27 -.0001 0c.5551-.5491 1.3791-.7248 2.11-.4501l0 0c.9072.3385 1.8499.5733 2.81.7l0 0c1.0055.1418 1.7451 1.0147 1.72 2.03Z"/></svg>