<?xml version="1.0" encoding="UTF-8"?><svg version="1.1" viewBox="0 0 42 42" xmlns="http://www.w3.org/2000/svg"><g transform="translate(0-1010.36)"><g transform="translate(-492.085 657.348)"><g transform="translate(43.79-45.7588)"><g transform="translate(-114.007 33.4107)"><path fill="#1A1A1A" fill-rule="evenodd" stroke="none" d="M21.625.75c-1.933 0-3.5 1.567-3.5 3.5 0 1.9329 1.567 3.5 3.5 3.5 1.9329 0 3.5-1.5671 3.5-3.5 0-1.933-1.5671-3.5-3.5-3.5Zm0 8c-1.6617 0-3.0956.9102-3.875 2.25L15.0938 13.6562l-4.3125-3.875 -.0001-.0001c-.3321-.3205-.7931-.4703-1.25-.4063l-.0001 0c-.8193.1233-1.3835.8874-1.2602 1.7067 .0538.3575.2349.6836.5101.9182l5.3437 4.8437 -.0001-.0001c.5993.5505 1.5283.5228 2.0937-.0625l1.1562-1.1563 .71875 8.75v6.375 9l-.0001 0c-.0118.8284.6503 1.5094 1.4787 1.5212 .8284.0117 1.5094-.6504 1.5212-1.4788 .0001-.0142.0001-.0283-.0001-.0425l-.0001-9.0001v-6h1v6 9l-.0001 0c-.0118.8284.6503 1.5094 1.4787 1.5212 .8284.0117 1.5094-.6504 1.5212-1.4788 .0001-.0142.0001-.0283-.0001-.0425l-.0001-9.0001v-6h.03125l.75-9.125 .6562.65625 -.0001-.0001c.5761.5954 1.5258.611 2.1212.0348 .0012-.0013.0025-.0025.0037-.0037l4.5937-4.5938 0-.0001c.6048-.5663.6361-1.5156.0699-2.1204 -.3-.3205-.7253-.4935-1.1638-.4734l0-.0001c-.3919.0154-.762.1837-1.0313.4687l-3.5 3.5312 -2.1875-2.25c-.7935-1.2798-2.1961-2.125-3.8125-2.125Z" transform="translate(562.302 365.362)"/></g></g></g></g></svg>