<?xml version="1.0" encoding="UTF-8"?><svg version="1.1" viewBox="0 0 64 64" xmlns="http://www.w3.org/2000/svg" xmlns:xlink="http://www.w3.org/1999/xlink"><defs><path d="M59 33.6c0-2.7-1.7-5-4-6 .9-.9 1.5-2.2 1.5-3.6 0-2.8-2.3-5.1-5.1-5.1 -.2 0-.4 0-.5 0 .3-.7.5-1.5.5-2.3 0-2.8-2.3-5.1-5.1-5.1 -.9 0-1.7.2-2.4.6 -.7-2-2.6-3.7-4.8-3.7 -2.8 0-5 2.6-5.1 4.6v0 35h.1s0 0 0 0c0 3.6 2.9 6.4 6.5 6.4 3.2 0 5.8-2.3 6.4-5.3 .6.2 1.3.3 2 .3 3.6 0 6.5-2.9 6.5-6.5 0-1.1-.3-2.2-.8-3.2 2.4-.8 4.3-3.2 4.3-6.1Z" id="a"/><path d="M5 33.6c0-2.7 1.7-5 4-6 -.9-.9-1.5-2.2-1.5-3.6 0-2.8 2.3-5.1 5.1-5.1 .2 0 .4 0 .5 0 -.3-.7-.5-1.5-.5-2.3 0-2.8 2.3-5.1 5.1-5.1 .9 0 1.7.2 2.4.6 .7-2 2.6-3.7 4.8-3.7 2.8 0 5 2.6 5.1 4.6v0 35h-.1s0 0 0 0c0 3.6-2.9 6.4-6.5 6.4 -3.2 0-5.8-2.3-6.4-5.3 -.6.2-1.3.3-2 .3 -3.6 0-6.5-2.9-6.5-6.5 0-1.1.3-2.2.8-3.2 -2.4-.8-4.3-3.2-4.3-6.1Z" id="b"/></defs><g fill="#F0908B"><use xlink:href="#a"/><use xlink:href="#b"/></g><g stroke-linecap="round" stroke-width="2" stroke="#2C3E50" fill="none" stroke-linejoin="round"><use xlink:href="#a"/><use xlink:href="#b"/><path d="M15.5 35.2s4.6-.7 6.6 3.8c2.2 5-.7 8.7-5 10.1"/><path d="M25.6 20.6s-2.5 4-7 3 -5.4-4.7-5.4-4.7"/><path d="M25.6 29.6c-.1-.1-1.3-4.3-6.5-5.8"/><path d="M43.4 30.2s-1.2 4.4 2.6 7.8c1.8 1.6 5.4 2.1 8.5 1.7"/><path d="M42 22s2.7 1.7 5 1 3.9-4.1 3.9-4.1"/><path d="M40 44s1.3-5.1 7.3-5.1"/></g></svg>